<svg width="134" height="117" viewBox="0 0 134 117" fill="none" xmlns="http://www.w3.org/2000/svg">
<path d="M60.9062 73.945H61.9509C63.4496 73.945 64.7212 72.5825 64.7212 70.9021C64.7212 68.7675 64.2217 68.495 62.7683 67.9954L60.9062 67.3596V73.945Z" fill="#F4C92E"/>
<path d="M57.5 17.0833C32.43 17.0833 12.0833 37.43 12.0833 62.5C12.0833 87.57 32.43 107.917 57.5 107.917C82.57 107.917 102.917 87.57 102.917 62.5C102.917 37.43 82.57 17.0833 57.5 17.0833ZM37.4258 82.5741C38.7429 83.8912 38.7429 86.0712 37.4258 87.3883C36.7445 88.0696 35.8816 88.3875 35.0187 88.3875C34.1558 88.3875 33.2929 88.0696 32.6116 87.3883C25.9808 80.7575 22.3021 71.9012 22.3021 62.5C22.3021 53.0987 25.9808 44.2425 32.6116 37.6116C33.9287 36.2945 36.1087 36.2945 37.4258 37.6116C38.7429 38.9287 38.7429 41.1087 37.4258 42.4258C32.0666 47.785 29.1146 54.9154 29.1146 62.5C29.1146 70.0846 32.0666 77.215 37.4258 82.5741ZM64.9937 61.5008C69.3537 63.045 71.4883 66.0879 71.4883 70.8566C71.4883 76.3066 67.2192 80.7121 61.9054 80.7121H60.8608V81.5296C60.8608 83.3917 59.3166 84.9358 57.4546 84.9358C55.5925 84.9358 54.0483 83.3917 54.0483 81.5296V80.7121H53.9121C48.1441 80.7121 43.4208 75.8525 43.4208 69.9029C43.4208 68.0408 44.965 66.4966 46.8271 66.4966C48.6892 66.4966 50.2333 68.0408 50.2333 69.9029C50.2333 72.1283 51.8683 73.8996 53.9121 73.8996H54.0483V64.9071L49.9608 63.4537C45.6008 61.9096 43.4663 58.8667 43.4663 54.0979C43.4663 48.6479 47.7354 44.2425 53.0491 44.2425H54.0938V43.425C54.0938 41.5629 55.6379 40.0187 57.5 40.0187C59.3621 40.0187 60.9063 41.5629 60.9063 43.425V44.2425H61.0425C66.8104 44.2425 71.5337 49.1021 71.5337 55.0517C71.5337 56.9137 69.9896 58.4579 68.1275 58.4579C66.2654 58.4579 64.7212 56.9137 64.7212 55.0517C64.7212 52.8262 63.0863 51.055 61.0425 51.055H60.9063V60.0475L64.9937 61.5008ZM82.3884 87.3883C81.7071 88.0696 80.8442 88.3875 79.9813 88.3875C79.1184 88.3875 78.2555 88.0696 77.5742 87.3883C76.2572 86.0712 76.2572 83.8912 77.5742 82.5741C82.9334 77.215 85.8854 70.0846 85.8854 62.5C85.8854 54.9154 82.9334 47.785 77.5742 42.4258C76.2572 41.1087 76.2572 38.9287 77.5742 37.6116C78.8913 36.2945 81.0713 36.2945 82.3884 37.6116C89.0192 44.2425 92.6979 53.0987 92.6979 62.5C92.6979 71.9012 89.0192 80.7575 82.3884 87.3883Z" fill="#F4C92E"/>
<path d="M50.3243 54.1434C50.3243 56.2779 50.8239 56.5504 52.2772 57.05L54.1393 57.6859V51.055H53.0947C51.5505 51.055 50.3243 52.4629 50.3243 54.1434Z" fill="#F4C92E"/>
<circle cx="11" cy="8" r="8" fill="#F4C92E" fill-opacity="0.2"/>
<circle cx="126" cy="58" r="8" fill="#F4C92E" fill-opacity="0.2"/>
<circle cx="44" cy="7" r="3" fill="#F4C92E" fill-opacity="0.2"/>
<circle cx="112" cy="44" r="3" fill="#F4C92E" fill-opacity="0.2"/>
<circle cx="4.5" cy="32.5" r="4.5" fill="#F4C92E" fill-opacity="0.2"/>
<circle cx="113.5" cy="75.5" r="4.5" fill="#F4C92E" fill-opacity="0.2"/>
<circle cx="23" cy="108" r="4" fill="#F4C92E" fill-opacity="0.2"/>
<circle cx="37" cy="112" r="2" fill="#F4C92E" fill-opacity="0.2"/>
<circle cx="83" cy="16" r="2" fill="#F4C92E" fill-opacity="0.2"/>
</svg>
